<svg width="230" height="37" viewBox="0 0 230 37" fill="none" xmlns="http://www.w3.org/2000/svg">
<g id="final logo from figma 4" clip-path="url(#clip0_1295_1801)">
<path id="Vector" d="M15.502 37.0225C13.273 37.0225 11.2635 36.6769 9.47345 35.9855C7.71724 35.2613 6.21432 34.2902 4.96468 33.0721C3.74884 31.8541 2.82006 30.455 2.17837 28.8748C1.53667 27.2618 1.21582 25.5828 1.21582 23.8381C1.21582 21.9616 1.53667 20.2004 2.17837 18.5544C2.82006 16.8755 3.74884 15.4106 4.96468 14.1596C6.18052 12.9086 7.66655 11.9211 9.42276 11.1968C11.2128 10.4725 13.2392 10.1105 15.502 10.1105C17.7648 10.1105 19.7743 10.4725 21.5306 11.1968C23.2868 11.9211 24.7729 12.9086 25.9887 14.1596C27.2045 15.3776 28.1164 16.7932 28.7243 18.4063C29.366 20.0194 29.6869 21.7147 29.6869 23.4924C29.6869 23.9533 29.67 24.4142 29.6362 24.875C29.6024 25.303 29.5518 25.6816 29.4843 26.0108H9.82808C9.96314 27.7556 10.6049 29.0888 11.7532 30.0106C12.9352 30.8994 14.2693 31.3438 15.7553 31.3438C16.9374 31.3438 18.0688 31.064 19.1495 30.5044C20.2641 29.9447 21.0071 29.1876 21.3786 28.2329L28.2684 30.1093C27.2214 32.1504 25.6003 33.8129 23.405 35.0967C21.2097 36.3806 18.5754 37.0225 15.502 37.0225ZM21.1253 21.1222C20.9564 19.4762 20.3485 18.1758 19.3016 17.2212C18.2546 16.2665 16.9543 15.7892 15.4007 15.7892C13.8134 15.7892 12.4962 16.2829 11.4492 17.2705C10.436 18.2252 9.84497 19.5091 9.67611 21.1222H21.1253ZM58.9944 36.5287H50.889V21.9616C50.889 20.2498 50.5513 19.0153 49.8758 18.2581C49.2341 17.4681 48.3728 17.073 47.2921 17.073C46.718 17.073 46.1438 17.1882 45.5697 17.4187C44.9955 17.6491 44.4383 17.9783 43.8979 18.4063C43.3575 18.8013 42.8678 19.2787 42.4288 19.8383C42.0234 20.3979 41.7026 21.007 41.4662 21.6653V36.5287H33.3605V10.6043H40.6556V14.9497C41.6351 13.4024 43.0198 12.2173 44.8098 11.3943C46.5997 10.5384 48.6599 10.1105 50.9903 10.1105C52.7127 10.1105 54.0975 10.4232 55.1445 11.0487C56.1914 11.6412 57.002 12.4313 57.5761 13.4189C58.1503 14.3736 58.5218 15.427 58.6905 16.5792C58.8935 17.7314 58.9944 18.8507 58.9944 19.9371V36.5287ZM81.3572 35.1461C80.2424 35.607 78.9592 36.035 77.507 36.43C76.0883 36.825 74.6532 37.0225 73.201 37.0225C72.1877 37.0225 71.2249 36.8909 70.3131 36.6275C69.4353 36.3971 68.6585 36.0185 67.9826 35.4918C67.3072 34.9321 66.7669 34.2079 66.362 33.319C65.99 32.4302 65.8046 31.3603 65.8046 30.1093V16.5792H62.4104V10.6043H65.8046V2.35782H73.9104V10.6043H79.3306V16.5792H73.9104V27.3934C73.9104 28.2494 74.1298 28.8748 74.5687 29.2699C75.0076 29.632 75.5649 29.8131 76.2403 29.8131C76.8481 29.8131 77.473 29.7143 78.1149 29.5168C78.7568 29.3193 79.3136 29.1053 79.7865 28.8748L81.3572 35.1461ZM96.5882 37.0225C94.3592 37.0225 92.3497 36.6769 90.5595 35.9855C88.8034 35.2613 87.3002 34.2902 86.0505 33.0721C84.8348 31.8541 83.906 30.455 83.2647 28.8748C82.6228 27.2618 82.3018 25.5828 82.3018 23.8381C82.3018 21.9616 82.6228 20.2004 83.2647 18.5544C83.906 16.8755 84.8348 15.4106 86.0505 14.1596C87.2668 12.9086 88.7524 11.9211 90.5091 11.1968C92.2986 10.4725 94.3252 10.1105 96.5882 10.1105C98.8507 10.1105 100.86 10.4725 102.617 11.1968C104.373 11.9211 105.859 12.9086 107.075 14.1596C108.291 15.3776 109.202 16.7932 109.81 18.4063C110.452 20.0194 110.773 21.7147 110.773 23.4924C110.773 23.9533 110.756 24.4142 110.722 24.875C110.689 25.303 110.638 25.6816 110.57 26.0108H90.9139C91.0495 27.7556 91.6908 29.0888 92.839 30.0106C94.0213 30.8994 95.3555 31.3438 96.8411 31.3438C98.0234 31.3438 99.1546 31.064 100.235 30.5044C101.35 29.9447 102.093 29.1876 102.465 28.2329L109.354 30.1093C108.308 32.1504 106.687 33.8129 104.491 35.0967C102.296 36.3806 99.6616 37.0225 96.5882 37.0225ZM102.211 21.1222C102.043 19.4762 101.435 18.1758 100.387 17.2212C99.3406 16.2665 98.0404 15.7892 96.4867 15.7892C94.8996 15.7892 93.5824 16.2829 92.5351 17.2705C91.5218 18.2252 90.9309 19.5091 90.762 21.1222H102.211ZM131.316 17.3693C129.357 17.4022 127.584 17.7149 125.997 18.3075C124.41 18.9001 123.262 19.7889 122.552 20.974V36.5287H114.447V10.6043H121.894V15.8385C122.805 14.0937 123.971 12.7276 125.389 11.74C126.841 10.7524 128.378 10.2421 129.999 10.2092C130.371 10.2092 130.641 10.2092 130.81 10.2092C130.979 10.2092 131.147 10.2257 131.316 10.2586V17.3693ZM134.629 0.481334H142.735V27.2947C142.735 29.2699 143.596 30.2575 145.318 30.2575C145.724 30.2575 146.163 30.2081 146.636 30.1093C147.142 29.9777 147.598 29.7966 148.004 29.5662L149.068 35.4918C148.054 35.9527 146.889 36.3147 145.572 36.5781C144.255 36.8415 143.022 36.9732 141.874 36.9732C139.543 36.9732 137.754 36.3806 136.504 35.1954C135.254 34.0103 134.629 32.2985 134.629 30.06V0.481334ZM164.415 37.0225C162.186 37.0225 160.177 36.6769 158.387 35.9855C156.631 35.2613 155.128 34.2902 153.878 33.0721C152.662 31.8541 151.734 30.455 151.092 28.8748C150.45 27.2618 150.13 25.5828 150.13 23.8381C150.13 21.9616 150.45 20.2004 151.092 18.5544C151.734 16.8755 152.662 15.4106 153.878 14.1596C155.094 12.9086 156.58 11.9211 158.336 11.1968C160.126 10.4725 162.153 10.1105 164.415 10.1105C166.678 10.1105 168.688 10.4725 170.444 11.1968C172.2 11.9211 173.686 12.9086 174.902 14.1596C176.118 15.3776 177.03 16.7932 177.638 18.4063C178.279 20.0194 178.6 21.7147 178.6 23.4924C178.6 23.9533 178.583 24.4142 178.55 24.875C178.516 25.303 178.465 25.6816 178.398 26.0108H158.742C158.877 27.7556 159.518 29.0888 160.667 30.0106C161.848 30.8994 163.183 31.3438 164.669 31.3438C165.851 31.3438 166.982 31.064 168.063 30.5044C169.177 29.9447 169.921 29.1876 170.292 28.2329L177.182 30.1093C176.135 32.1504 174.514 33.8129 172.319 35.0967C170.123 36.3806 167.489 37.0225 164.415 37.0225ZM170.039 21.1222C169.87 19.4762 169.262 18.1758 168.215 17.2212C167.168 16.2665 165.868 15.7892 164.314 15.7892C162.727 15.7892 161.41 16.2829 160.363 17.2705C159.349 18.2252 158.759 19.5091 158.59 21.1222H170.039ZM189.822 37.0225C188.505 37.0225 187.272 36.825 186.124 36.43C185.01 36.002 184.047 35.4259 183.237 34.7017C182.426 33.9445 181.784 33.0721 181.312 32.0846C180.839 31.064 180.602 29.9612 180.602 28.7761C180.602 27.4922 180.872 26.3235 181.412 25.2701C181.987 24.2167 182.781 23.3113 183.794 22.5542C184.807 21.797 186.006 21.2045 187.391 20.7765C188.775 20.3486 190.312 20.1346 192.001 20.1346C193.115 20.1346 194.196 20.2333 195.243 20.4309C196.29 20.5955 197.202 20.8588 197.979 21.221V20.0358C197.979 17.0401 196.206 15.5423 192.66 15.5423C191.207 15.5423 189.822 15.7892 188.505 16.2829C187.188 16.7438 185.804 17.4516 184.351 18.4063L181.97 13.4683C183.726 12.349 185.55 11.5095 187.441 10.9499C189.333 10.3902 191.342 10.1105 193.47 10.1105C197.489 10.1105 200.596 11.0322 202.791 12.8757C204.987 14.7192 206.084 17.4187 206.084 20.974V27.6403C206.084 28.4304 206.203 28.99 206.439 29.3193C206.709 29.6155 207.165 29.7966 207.807 29.8624V36.5287C207.097 36.6933 206.456 36.7921 205.882 36.825C205.307 36.8909 204.784 36.9237 204.311 36.9237C202.791 36.9237 201.643 36.644 200.866 36.0843C200.089 35.4918 199.6 34.6688 199.397 33.6153L199.245 32.4302C198.063 33.9116 196.645 35.0473 194.989 35.8374C193.368 36.6275 191.646 37.0225 189.822 37.0225ZM192.203 31.3438C193.081 31.3438 193.926 31.1957 194.737 30.8994C195.581 30.6031 196.273 30.2081 196.814 29.7143C197.59 29.1217 197.979 28.4962 197.979 27.8379V25.3688C197.27 25.1055 196.493 24.908 195.648 24.7763C194.838 24.6117 194.078 24.5294 193.368 24.5294C191.883 24.5294 190.65 24.8586 189.67 25.517C188.725 26.1754 188.252 27.0313 188.252 28.0848C188.252 29.0394 188.623 29.8295 189.366 30.455C190.11 31.0476 191.055 31.3438 192.203 31.3438ZM213.482 36.5287V18.7026H210.088V12.7276H213.482V10.6043C213.482 8.99119 213.702 7.52625 214.141 6.20944C214.58 4.89262 215.205 3.77334 216.015 2.8516C216.826 1.9298 217.805 1.22207 218.954 0.728226C220.102 0.234442 221.368 -0.0124512 222.753 -0.0124512C224.915 -0.0124512 227.228 0.497805 229.694 1.51832L228.224 7.4439C227.684 7.21348 227.076 7.03241 226.4 6.90076C225.759 6.73616 225.151 6.65387 224.577 6.65387C222.584 6.65387 221.588 7.87191 221.588 10.308V12.7276H227.769V18.7026H221.588V36.5287H213.482Z" fill="#666666"/>
<g id="Group 2">
<path id="Vector_2" d="M197.795 26.3673C197.795 26.3673 196.429 28.058 193.018 27.0927C193.018 27.0927 193.827 24.9793 197.795 26.3673Z" fill="#206D1A"/>
<path id="Vector_3" d="M192.379 15.6003C192.379 15.6003 194.595 15.8802 194.659 18.8161C194.654 18.8104 192.169 19.1245 192.379 15.6003Z" fill="#206D1A"/>
<path id="Vector_4" d="M200.624 4.95923C200.624 4.95923 203.613 8.68903 199.699 15.2747C199.699 15.2805 195.491 12.4874 200.624 4.95923Z" fill="#206D1A"/>
<path id="Vector_5" d="M209.573 18.6563C209.573 18.6563 206.531 22.3404 199.06 20.1299C199.06 20.1299 200.888 15.4976 209.573 18.6563Z" fill="#206D1A"/>
<path id="Vector_6" d="M193.388 24.5108C193.358 24.5108 193.329 24.5051 193.299 24.5051C193.282 24.5108 193.264 24.5166 193.241 24.5166C193.229 24.5166 193.217 24.5108 193.206 24.5108C193.182 24.5166 193.165 24.5222 193.142 24.5222C193.118 24.5222 193.094 24.5166 193.077 24.5108C193.012 24.5166 192.948 24.5279 192.877 24.5337H192.872C192.872 24.5337 192.872 24.5337 192.866 24.5337C192.813 24.5394 192.761 24.5451 192.713 24.5451C192.696 24.5451 192.678 24.5394 192.661 24.5337C192.626 24.5508 192.578 24.5622 192.532 24.5622C192.509 24.5622 192.491 24.5508 192.473 24.5508C192.444 24.5622 192.414 24.5679 192.374 24.5679C192.368 24.5679 192.362 24.5679 192.356 24.5622C192.339 24.5622 192.327 24.5736 192.315 24.5736C192.297 24.5736 192.286 24.5679 192.268 24.5622C192.25 24.5679 192.239 24.5679 192.221 24.5736C192.18 24.5965 192.133 24.6137 192.075 24.6137C192.063 24.6137 192.051 24.6079 192.04 24.6079C192.004 24.6251 191.964 24.6308 191.922 24.6308C191.916 24.6308 191.916 24.6308 191.911 24.6308C191.899 24.6365 191.887 24.6365 191.876 24.6365C191.87 24.6365 191.87 24.6422 191.87 24.6422C191.834 24.6593 191.799 24.6707 191.758 24.665H191.752C191.752 24.665 191.752 24.665 191.747 24.665C191.712 24.6822 191.665 24.6936 191.618 24.6936C191.606 24.6936 191.594 24.6879 191.582 24.6879C191.542 24.7164 191.489 24.7393 191.418 24.7393C191.407 24.7393 191.395 24.7336 191.383 24.7336C191.366 24.745 191.336 24.745 191.313 24.7507H191.307C191.266 24.7736 191.225 24.7907 191.184 24.8079C191.172 24.8135 191.161 24.8079 191.149 24.8079C191.143 24.8135 191.137 24.8135 191.137 24.8135H191.143C191.137 24.8135 191.137 24.8135 191.132 24.8135C191.108 24.8307 191.085 24.8421 191.061 24.8535C191.032 24.8593 191.002 24.8649 190.973 24.8764C190.985 24.8707 190.997 24.8649 191.002 24.8649C190.979 24.8764 190.95 24.8821 190.92 24.8878C190.909 24.8935 190.885 24.8935 190.873 24.8992C190.856 24.9106 190.844 24.9221 190.827 24.9278C190.762 24.9564 190.698 24.9849 190.627 25.0021C190.563 25.0192 190.504 25.0477 190.44 25.0706C190.417 25.0877 190.393 25.1106 190.358 25.1163C190.346 25.1277 190.322 25.1277 190.311 25.1334C190.299 25.1391 190.293 25.1448 190.282 25.1506C190.27 25.1562 190.253 25.1562 190.24 25.162C190.235 25.162 190.229 25.1677 190.217 25.1734C190.2 25.1848 190.188 25.2019 190.165 25.2076C190.141 25.2191 190.118 25.2191 190.094 25.2248C189.584 26.6528 189.403 28.1207 189.614 29.5601C190.37 34.7236 193.587 36.38 193.587 36.38C191.079 31.6677 191.571 27.698 193.388 24.5108Z" fill="#206D1A"/>
<path id="Vector_7" d="M208.178 3.19434C204.152 8.00367 205.365 10.7568 206.092 11.7335C205.037 13.1044 203.25 14.6466 200.208 15.8974C197.49 17.0169 195.21 18.502 193.457 20.1984C193.493 20.1984 193.528 20.2041 193.563 20.2098C193.569 20.2098 193.569 20.2098 193.575 20.2098C193.587 20.2098 193.592 20.2155 193.604 20.2155C193.622 20.2155 193.634 20.2213 193.651 20.2213C193.663 20.2213 193.669 20.2213 193.68 20.2213C193.686 20.2213 193.692 20.2155 193.698 20.2155C193.71 20.2155 193.722 20.2213 193.727 20.2269C193.821 20.2384 193.909 20.2498 194.003 20.2612C194.19 20.2898 194.378 20.3126 194.565 20.3469H194.571C194.595 20.3469 194.612 20.3469 194.635 20.3526C194.735 20.3641 194.835 20.3869 194.935 20.4097C194.969 20.404 195.005 20.3983 195.046 20.4097C195.104 20.4212 195.163 20.4383 195.216 20.4554C195.263 20.4497 195.303 20.444 195.35 20.4554C195.562 20.4954 195.778 20.5183 195.983 20.564C196.007 20.5697 196.031 20.5811 196.06 20.5868C196.065 20.5868 196.071 20.5868 196.083 20.5925C196.089 20.5925 196.095 20.5868 196.106 20.5868C196.165 20.5868 196.206 20.6039 196.247 20.6325C196.341 20.6439 196.434 20.6611 196.529 20.6897C198.11 19.2388 199.892 18.0622 201.55 17.194C204.662 15.5604 206.186 13.5099 206.93 11.7963C210.633 8.66052 208.178 3.19434 208.178 3.19434Z" fill="#206D1A"/>
<path id="Vector_8" d="M193.171 26.8298C193.06 26.9839 193.018 27.0925 193.018 27.0925C196.429 28.0578 197.795 26.3671 197.795 26.3671C197.695 26.3328 197.595 26.2986 197.501 26.27C196.998 26.687 195.65 27.4695 193.171 26.8298Z" fill="#4FC646"/>
<path id="Vector_9" d="M194.653 18.8105C194.63 17.7081 194.302 16.9827 193.903 16.5029C194.225 16.977 194.466 17.6453 194.489 18.5934C194.489 18.5934 193.505 18.7191 192.831 17.9309C193.499 18.959 194.653 18.8105 194.653 18.8105Z" fill="#4FC646"/>
<path id="Vector_10" d="M199.699 15.2805C201.908 11.5564 201.914 8.74621 201.503 7.00977C201.749 8.76332 201.498 11.3222 199.57 14.5723C199.57 14.5723 198.527 13.8811 198.111 12.2532C198.357 14.3894 199.699 15.2805 199.699 15.2805Z" fill="#4FC646"/>
<path id="Vector_11" d="M208.928 18.4333C207.815 19.3244 204.832 21.0209 199.406 19.5529C199.159 19.8899 199.06 20.1298 199.06 20.1298C206.531 22.346 209.573 18.6561 209.573 18.6561C209.356 18.5762 209.139 18.5019 208.928 18.4333Z" fill="#4FC646"/>
<path id="Vector_12" d="M205.957 11.0308C205.758 10.7567 205.512 10.3454 205.359 9.78564C205.418 10.3968 205.594 10.8824 205.781 11.2479C205.845 11.1737 205.904 11.0993 205.957 11.0308Z" fill="#4FC646"/>
<path id="Vector_13" d="M208.746 5.05054C209.01 6.89545 208.846 9.35157 206.777 11.088C206.033 12.8015 204.51 14.8463 201.398 16.4856C199.535 17.468 197.513 18.8218 195.796 20.5353C195.854 20.5467 195.913 20.5524 195.966 20.5696C195.989 20.5752 196.013 20.5867 196.042 20.5924C196.048 20.5924 196.054 20.5924 196.066 20.5981C196.071 20.5981 196.077 20.5924 196.089 20.5924C196.148 20.5924 196.188 20.6095 196.23 20.6381C196.323 20.6495 196.423 20.6667 196.511 20.6952C197.689 19.6157 198.978 18.6789 200.244 17.9193C200.531 17.7479 200.806 17.588 201.087 17.4337C201.234 17.3538 201.386 17.2738 201.533 17.1939C204.644 15.5546 206.174 13.5097 206.912 11.7962C209.25 9.81991 209.15 6.92405 208.746 5.05054Z" fill="#4FC646"/>
<path id="Vector_14" d="M193.3 24.4995C193.282 24.5052 193.264 24.5109 193.241 24.5109C193.229 24.5109 193.218 24.5052 193.206 24.5052C193.182 24.5109 193.165 24.5166 193.142 24.5166C193.118 24.5166 193.094 24.5109 193.077 24.5052C193.012 24.5109 192.948 24.5224 192.883 24.528C192.883 24.528 192.883 24.528 192.878 24.528C191.852 26.6243 191.413 29.0347 191.987 31.7535C191.571 29.0119 192.192 26.5957 193.382 24.5109C193.358 24.5052 193.329 24.5052 193.3 24.4995Z" fill="#4FC646"/>
</g>
</g>
<defs>
<clipPath id="clip0_1295_1801">
<rect width="230" height="37" fill="white"/>
</clipPath>
</defs>
</svg>
